<svg viewBox="0 0 32 32" xmlns="http://www.w3.org/2000/svg" aria-hidden="true" role="presentation" focusable="false" style="display: block; height: 24px; width: 24px; fill: currentcolor;"><path d="M7 1a3 3 0 0 0-2.995 2.824L4 4v27h2V4a1 1 0 0 1 .883-.993L7 3h11a1 1 0 0 1 .993.883L19 4v1h-5a1 1 0 0 0-.993.883L13 6v3h-3v2h19V9h-2V6a1 1 0 0 0-.883-.993L26 5h-5V4a3 3 0 0 0-2.824-2.995L18 1H7zm13 28a1 1 0 1 0 0 2 1 1 0 0 0 0-2zm5 0a1 1 0 1 0 0 2 1 1 0 0 0 0-2zm-10 0a1 1 0 1 0 0 2 1 1 0 0 0 0-2zm5-4a1 1 0 1 0 0 2 1 1 0 0 0 0-2zm5 0a1 1 0 1 0 0 2 1 1 0 0 0 0-2zm-10 0a1 1 0 1 0 0 2 1 1 0 0 0 0-2zm5-4a1 1 0 1 0 0 2 1 1 0 0 0 0-2zm5 0a1 1 0 1 0 0 2 1 1 0 0 0 0-2zm-10 0a1 1 0 1 0 0 2 1 1 0 0 0 0-2zm5-4a1 1 0 1 0 0 2 1 1 0 0 0 0-2zm5 0a1 1 0 1 0 0 2 1 1 0 0 0 0-2zm-10 0a1 1 0 1 0 0 2 1 1 0 0 0 0-2zm5-4a1 1 0 1 0 0 2 1 1 0 0 0 0-2zm-5 0a1 1 0 1 0 0 2 1 1 0 0 0 0-2zm10 0a1 1 0 1 0 0 2 1 1 0 0 0 0-2zM15 7h10v2H15V7z"></path></svg>